HIERARCHY
ROOT joint_Root
{
	OFFSET 0.0 0.0 0.0
	CHANNELS 6 Xposition Yposition Zposition Zrotation Xrotation Yrotation 
	JOINT Hips
	{
		OFFSET 4.5925 91.4895 -427.239
		CHANNELS 6 Xposition Yposition Zposition Zrotation Xrotation Yrotation 
		JOINT Spine
		{
			OFFSET 15.7357 0.0 0.0
			CHANNELS 6 Xposition Yposition Zposition Zrotation Xrotation Yrotation 
			JOINT Chest
			{
				OFFSET 8.98455 -0.406207 0.0
				CHANNELS 6 Xposition Yposition Zposition Zrotation Xrotation Yrotation 
				JOINT Neck
				{
					OFFSET 16.3773 0.0 0.0
					CHANNELS 6 Xposition Yposition Zposition Zrotation Xrotation Yrotation 
					JOINT Head
					{
						OFFSET 6.45672 0.0 0.0
						CHANNELS 6 Xposition Yposition Zposition Zrotation Xrotation Yrotation 
						End Site
						{
							OFFSET 0.0 0.0 0.0
						}
					}
				}
				JOINT Shoulder_L
				{
					OFFSET 12.9942 -0.242716 4.98039
					CHANNELS 6 Xposition Yposition Zposition Zrotation Xrotation Yrotation 
					JOINT UpperArm_L
					{
						OFFSET 5.34809 0.0 0.0
						CHANNELS 6 Xposition Yposition Zposition Zrotation Xrotation Yrotation 
						JOINT LowerArm_L
						{
							OFFSET 24.3286 1.87007e-05 0.0
							CHANNELS 6 Xposition Yposition Zposition Zrotation Xrotation Yrotation 
							JOINT Hand_L
							{
								OFFSET 22.2916 0.0 0.0
								CHANNELS 6 Xposition Yposition Zposition Zrotation Xrotation Yrotation 
								End Site
								{
									OFFSET 0.0 0.0 0.0
								}
							}
						}
					}
				}
				JOINT Shoulder_R
				{
					OFFSET 12.9945 -0.242716 -4.98039
					CHANNELS 6 Xposition Yposition Zposition Zrotation Xrotation Yrotation 
					JOINT UpperArm_R
					{
						OFFSET -5.34813 0.0 0.0
						CHANNELS 6 Xposition Yposition Zposition Zrotation Xrotation Yrotation 
						JOINT LowerArm_R
						{
							OFFSET -24.3289 0.000322201 0.0
							CHANNELS 6 Xposition Yposition Zposition Zrotation Xrotation Yrotation 
							JOINT Hand_R
							{
								OFFSET -22.2915 -0.000108084 0.0
								CHANNELS 6 Xposition Yposition Zposition Zrotation Xrotation Yrotation 
								End Site
								{
									OFFSET 0.0 0.0 0.0
								}
							}
						}
					}
				}
			}
		}
		JOINT UpperLeg_L
		{
			OFFSET -2.19248 -6.46944 0.0
			CHANNELS 6 Xposition Yposition Zposition Zrotation Xrotation Yrotation 
			JOINT LowerLeg_L
			{
				OFFSET 39.0811 0.0 -1.23785e-05
				CHANNELS 6 Xposition Yposition Zposition Zrotation Xrotation Yrotation 
				JOINT Foot_L
				{
					OFFSET 40.9854 0.0 -1.26872e-05
					CHANNELS 6 Xposition Yposition Zposition Zrotation Xrotation Yrotation 
					JOINT Toes_L
					{
						OFFSET 11.7543 0.0 0.0
						CHANNELS 6 Xposition Yposition Zposition Zrotation Xrotation Yrotation 
						End Site
						{
							OFFSET 0.0 0.0 0.0
						}
					}
				}
			}
		}
		JOINT UpperLeg_R
		{
			OFFSET -2.19251 6.46944 0.0
			CHANNELS 6 Xposition Yposition Zposition Zrotation Xrotation Yrotation 
			JOINT LowerLeg_R
			{
				OFFSET -39.0811 -0.00228153 -0.0401928
				CHANNELS 6 Xposition Yposition Zposition Zrotation Xrotation Yrotation 
				JOINT Foot_R
				{
					OFFSET -40.9854 0.0 0.0
					CHANNELS 6 Xposition Yposition Zposition Zrotation Xrotation Yrotation 
					JOINT Toes_R
					{
						OFFSET -11.7543 0.0 0.0
						CHANNELS 6 Xposition Yposition Zposition Zrotation Xrotation Yrotation 
						End Site
						{
							OFFSET 0.0 0.0 0.0
						}
					}
				}
			}
		}
	}
}
MOTION
Frames:	4
Frame Time:	0.0333333
0.000000 0.000000 0.000000 0.000000 0.000000 -0.000000 -1.920180 89.654700 -2.334570 89.520500 -1.706580 14.218000 15.735700 0.000005 -0.000001 88.695500 76.508000 -89.133300 8.984550 -0.406207 -0.000000 19.209400 -0.645062 -0.768647 16.377300 -0.000001 -0.000001 5.371270 -4.998040 2.402880 6.456720 -0.000001 -0.000000 -4.789870 -4.520220 -0.768032 12.994200 -0.242716 4.980390 -90.986200 5.513370 -79.842700 5.348090 -0.000007 -0.000001 -52.383800 40.241300 -33.405800 24.328600 0.000019 0.000005 7.244670 19.734400 -20.630100 22.291600 -0.000001 0.000005 10.629200 5.220070 2.210840 12.994500 -0.242716 -4.980390 89.629100 10.459100 -87.957500 -5.348130 -0.000001 -0.000004 -56.084600 34.212200 -25.070700 -24.328900 0.000322 -0.000009 2.352640 5.615850 -22.783500 -22.291500 -0.000108 -0.000004 18.515100 5.387150 -2.524390 -2.192480 -6.469440 -0.000000 -173.270000 -10.116900 -0.274848 39.081100 -0.000007 -0.000012 -0.253693 0.340879 36.658400 40.985400 -0.000006 -0.000013 -0.472243 5.592960 -71.841700 11.754300 -0.000000 0.000003 -0.000098 -0.001011 -16.616400 -2.192510 6.469440 -0.000001 174.491000 18.943500 -178.822000 -39.081100 -0.002282 -0.040193 -0.125632 0.173976 36.539000 -40.985400 0.000008 0.000006 6.053310 9.407360 -73.615200 -11.754300 -0.000006 -0.000006 -0.003299 -0.043945 -18.360400
0.000000 0.000000 0.000000 0.000000 0.000000 -0.000000 -1.878790 89.661300 -2.374990 89.495100 -1.709980 14.173900 15.735700 0.000005 -0.000001 88.673800 76.495600 -89.113500 8.984550 -0.406207 -0.000000 19.234000 -0.655886 -0.770535 16.377300 -0.000001 -0.000001 5.453670 -5.063410 2.400080 6.456720 -0.000001 -0.000000 -5.205340 -4.659510 -0.815618 12.994200 -0.242716 4.980390 -90.980600 5.458680 -79.800200 5.348090 -0.000007 -0.000001 -52.385200 40.278400 -33.463400 24.328600 0.000019 0.000005 7.225620 19.658700 -20.649500 22.291600 -0.000001 0.000005 10.665700 5.221550 2.173190 12.994500 -0.242716 -4.980390 89.615800 10.423900 -87.877600 -5.348130 -0.000001 -0.000004 -56.037700 33.654300 -25.026500 -24.328900 0.000322 -0.000009 2.547450 5.771050 -23.876000 -22.291500 -0.000108 -0.000004 18.806200 5.389550 -2.600950 -2.192480 -6.469440 -0.000000 -173.300000 -10.117900 -0.354411 39.081100 -0.000007 -0.000012 -0.248866 0.334286 36.667000 40.985400 -0.000006 -0.000013 -0.443287 5.555590 -71.822300 11.754300 -0.000000 0.000003 -0.000092 -0.000959 -16.614400 -2.192510 6.469440 -0.000001 174.515000 18.945300 -178.893000 -39.081100 -0.002282 -0.040193 -0.123798 0.171662 36.513500 -40.985400 0.000008 0.000006 6.010220 9.425350 -73.556100 -11.754300 -0.000006 -0.000006 -0.003426 -0.045334 -18.416900
0.000000 0.000000 0.000000 0.000000 0.000000 -0.000000 -1.830210 89.675200 -2.429560 89.490800 -1.715010 14.128600 15.735700 0.000005 -0.000001 88.637400 76.483200 -89.096000 8.984550 -0.406207 -0.000000 19.258300 -0.675233 -0.805179 16.377300 -0.000001 -0.000001 5.520450 -5.136870 2.415800 6.456720 -0.000001 -0.000000 -5.601090 -4.729100 -0.836402 12.994200 -0.242716 4.980390 -90.974600 5.409430 -79.771300 5.348090 -0.000007 -0.000001 -52.358000 40.311000 -33.453500 24.328600 0.000019 0.000005 7.223920 19.589500 -20.709200 22.291600 -0.000001 0.000005 10.557200 5.219730 2.219790 12.994500 -0.242716 -4.980390 89.594000 10.393200 -87.750600 -5.348130 -0.000001 -0.000004 -55.849300 33.059700 -24.993200 -24.328900 0.000322 -0.000009 2.756090 5.803090 -25.469200 -22.291500 -0.000108 -0.000004 19.251000 5.388900 -2.580690 -2.192480 -6.469440 -0.000000 -173.342000 -10.156800 -0.419715 39.081100 -0.000007 -0.000012 -0.244411 0.328687 36.634800 40.985400 -0.000006 -0.000013 -0.403079 5.554340 -71.775700 11.754300 -0.000000 0.000003 -0.000094 -0.000974 -16.615000 -2.192510 6.469440 -0.000001 174.511000 18.971700 -178.969000 -39.081100 -0.002282 -0.040193 -0.120895 0.167929 36.482700 -40.985400 0.000008 0.000006 6.064140 9.441810 -73.505300 -11.754300 -0.000006 -0.000006 -0.003239 -0.043276 -18.333100
0.000000 0.000000 0.000000 0.000000 0.000000 -0.000000 -1.777180 89.678600 -2.482050 89.488200 -1.748650 14.095300 15.735700 0.000005 -0.000001 88.617700 76.469600 -89.093700 8.984550 -0.406207 -0.000000 19.285100 -0.686767 -0.837871 16.377300 -0.000001 -0.000001 5.616870 -5.155190 2.415380 6.456720 -0.000001 -0.000000 -6.018890 -4.769330 -0.872155 12.994200 -0.242716 4.980390 -90.963000 5.354270 -79.788400 5.348090 -0.000007 -0.000001 -52.525600 40.226300 -33.306200 24.328600 0.000019 0.000005 7.307660 19.863500 -20.677300 22.291600 -0.000001 0.000005 10.592800 5.220060 2.211260 12.994500 -0.242716 -4.980390 89.575400 10.332600 -87.634000 -5.348130 -0.000001 -0.000004 -55.559400 32.396100 -24.961600 -24.328900 0.000322 -0.000009 2.956090 5.712200 -27.429200 -22.291500 -0.000108 -0.000004 19.729800 5.394090 -2.746200 -2.192480 -6.469440 -0.000000 -173.383000 -10.189500 -0.499901 39.081100 -0.000007 -0.000012 -0.245311 0.329724 36.649200 40.985400 -0.000006 -0.000013 -0.369439 5.525190 -71.747900 11.754300 -0.000000 0.000003 -0.000083 -0.000875 -16.611300 -2.192510 6.469440 -0.000001 174.489000 18.983600 -179.046000 -39.081100 -0.002282 -0.040193 -0.125793 0.174599 36.475400 -40.985400 0.000008 0.000006 5.938020 9.534420 -73.428800 -11.754300 -0.000006 -0.000006 -0.003414 -0.045200 -18.411500
